<svg xmlns="http://www.w3.org/2000/svg" xmlns:xlink="http://www.w3.org/1999/xlink" width="500" zoomAndPan="magnify" viewBox="0 0 375 374.999991" height="500" preserveAspectRatio="xMidYMid meet" version="1.0"><defs><clipPath id="1c36a36411"><path d="M 40.460938 0 L 368.960938 0 L 368.960938 375 L 40.460938 375 Z M 40.460938 0 " clip-rule="nonzero"/></clipPath><clipPath id="df40d520ab"><path d="M 4.914062 196 L 23 196 L 23 215 L 4.914062 215 Z M 4.914062 196 " clip-rule="nonzero"/></clipPath><clipPath id="cb7c496dff"><path d="M 4.914062 178 L 23 178 L 23 197 L 4.914062 197 Z M 4.914062 178 " clip-rule="nonzero"/></clipPath><clipPath id="b3dad85fad"><path d="M 112 160 L 130.164062 160 L 130.164062 179 L 112 179 Z M 112 160 " clip-rule="nonzero"/></clipPath><clipPath id="85eb6565e7"><path d="M 4.914062 89 L 23 89 L 23 108 L 4.914062 108 Z M 4.914062 89 " clip-rule="nonzero"/></clipPath><clipPath id="6a33d4eb89"><path d="M 112 89 L 130.164062 89 L 130.164062 108 L 112 108 Z M 112 89 " clip-rule="nonzero"/></clipPath><clipPath id="145426474b"><path d="M 4.914062 71 L 23 71 L 23 90 L 4.914062 90 Z M 4.914062 71 " clip-rule="nonzero"/></clipPath><clipPath id="c58249aa0a"><path d="M 112 71 L 130.164062 71 L 130.164062 90 L 112 90 Z M 112 71 " clip-rule="nonzero"/></clipPath></defs><g clip-path="url(#1c36a36411)"><path fill="#ffffff" d="M 228.183594 140.613281 L 275.117188 140.613281 L 275.117188 187.492188 L 228.183594 187.492188 L 228.183594 234.359375 L 181.265625 234.359375 L 181.265625 187.492188 L 134.332031 187.492188 L 134.332031 328.105469 L 181.261719 328.105469 L 181.261719 374.976562 L 40.488281 374.976562 L 40.488281 328.105469 L 87.410156 328.105469 L 87.410156 93.738281 L 87.417969 93.738281 L 87.417969 46.871094 L 40.488281 46.871094 L 40.488281 0 L 275.117188 0 L 275.117188 46.871094 L 134.339844 46.871094 L 134.339844 93.753906 L 134.332031 93.753906 L 134.332031 140.613281 Z M 228.191406 281.230469 L 275.097656 281.230469 L 275.097656 234.351562 L 228.191406 234.351562 Z M 322.03125 328.105469 L 322.03125 281.230469 L 275.121094 281.230469 L 275.121094 374.976562 L 368.960938 374.976562 L 368.960938 328.105469 Z M 322.03125 93.753906 L 322.046875 93.753906 L 322.046875 46.878906 L 275.117188 46.878906 L 275.117188 140.613281 L 322.03125 140.613281 Z M 322.03125 93.753906 " fill-opacity="1" fill-rule="evenodd"/></g><path fill="#275828" d="M 76.425781 357.144531 L 58.554688 357.144531 L 58.554688 375 L 76.425781 375 L 76.425781 357.144531 " fill-opacity="1" fill-rule="nonzero"/><path fill="#3b8133" d="M 76.425781 339.285156 L 58.554688 339.285156 L 58.554688 357.144531 L 76.425781 357.144531 L 76.425781 339.285156 " fill-opacity="1" fill-rule="nonzero"/><path fill="#275828" d="M 76.425781 321.429688 L 58.554688 321.429688 L 58.554688 339.285156 L 76.425781 339.285156 L 76.425781 321.429688 " fill-opacity="1" fill-rule="nonzero"/><path fill="#3b8133" d="M 76.425781 303.570312 L 58.554688 303.570312 L 58.554688 321.429688 L 76.425781 321.429688 L 76.425781 303.570312 " fill-opacity="1" fill-rule="nonzero"/><path fill="#275828" d="M 76.425781 285.71875 L 58.554688 285.71875 L 58.554688 303.570312 L 76.425781 303.570312 L 76.425781 285.71875 " fill-opacity="1" fill-rule="nonzero"/><path fill="#3b8133" d="M 76.425781 267.855469 L 58.554688 267.855469 L 58.554688 285.71875 L 76.425781 285.71875 L 76.425781 267.855469 " fill-opacity="1" fill-rule="nonzero"/><path fill="#275828" d="M 76.425781 250 L 58.554688 250 L 58.554688 267.855469 L 76.425781 267.855469 L 76.425781 250 " fill-opacity="1" fill-rule="nonzero"/><path fill="#275828" d="M 58.554688 232.144531 L 40.683594 232.144531 L 40.683594 250 L 58.554688 250 L 58.554688 232.144531 " fill-opacity="1" fill-rule="nonzero"/><path fill="#3b8133" d="M 76.425781 232.144531 L 58.554688 232.144531 L 58.554688 250 L 76.425781 250 L 76.425781 232.144531 " fill-opacity="1" fill-rule="nonzero"/><path fill="#275828" d="M 40.683594 214.285156 L 22.8125 214.285156 L 22.8125 232.144531 L 40.683594 232.144531 L 40.683594 214.285156 " fill-opacity="1" fill-rule="nonzero"/><path fill="#3b8133" d="M 58.554688 214.285156 L 40.683594 214.285156 L 40.683594 232.144531 L 58.554688 232.144531 L 58.554688 214.285156 " fill-opacity="1" fill-rule="nonzero"/><path fill="#275828" d="M 76.425781 214.285156 L 58.554688 214.285156 L 58.554688 232.144531 L 76.425781 232.144531 L 76.425781 214.285156 " fill-opacity="1" fill-rule="nonzero"/><path fill="#3b8133" d="M 40.683594 196.429688 L 22.8125 196.429688 L 22.8125 214.285156 L 40.683594 214.285156 L 40.683594 196.429688 " fill-opacity="1" fill-rule="nonzero"/><path fill="#275828" d="M 58.554688 196.429688 L 40.683594 196.429688 L 40.683594 214.285156 L 58.554688 214.285156 L 58.554688 196.429688 " fill-opacity="1" fill-rule="nonzero"/><g clip-path="url(#df40d520ab)"><path fill="#275828" d="M 22.8125 196.429688 L 4.941406 196.429688 L 4.941406 214.285156 L 22.8125 214.285156 L 22.8125 196.429688 " fill-opacity="1" fill-rule="nonzero"/></g><path fill="#3b8133" d="M 76.425781 196.429688 L 58.554688 196.429688 L 58.554688 214.285156 L 76.425781 214.285156 L 76.425781 196.429688 " fill-opacity="1" fill-rule="nonzero"/><path fill="#275828" d="M 94.296875 196.429688 L 76.425781 196.429688 L 76.425781 214.285156 L 94.296875 214.285156 L 94.296875 196.429688 " fill-opacity="1" fill-rule="nonzero"/><path fill="#275828" d="M 40.683594 178.570312 L 22.8125 178.570312 L 22.8125 196.429688 L 40.683594 196.429688 L 40.683594 178.570312 " fill-opacity="1" fill-rule="nonzero"/><g clip-path="url(#cb7c496dff)"><path fill="#3b8133" d="M 22.8125 178.570312 L 4.941406 178.570312 L 4.941406 196.429688 L 22.8125 196.429688 L 22.8125 178.570312 " fill-opacity="1" fill-rule="nonzero"/></g><path fill="#275828" d="M 76.425781 178.570312 L 58.554688 178.570312 L 58.554688 196.429688 L 76.425781 196.429688 L 76.425781 178.570312 " fill-opacity="1" fill-rule="nonzero"/><path fill="#3b8133" d="M 94.296875 178.570312 L 76.425781 178.570312 L 76.425781 196.429688 L 94.296875 196.429688 L 94.296875 178.570312 " fill-opacity="1" fill-rule="nonzero"/><path fill="#275828" d="M 112.167969 178.570312 L 94.296875 178.570312 L 94.296875 196.429688 L 112.167969 196.429688 L 112.167969 178.570312 " fill-opacity="1" fill-rule="nonzero"/><g clip-path="url(#b3dad85fad)"><path fill="#275828" d="M 130.039062 160.714844 L 112.167969 160.714844 L 112.167969 178.570312 L 130.039062 178.570312 L 130.039062 160.714844 " fill-opacity="1" fill-rule="nonzero"/></g><path fill="#3b8133" d="M 76.425781 160.714844 L 58.554688 160.714844 L 58.554688 178.570312 L 76.425781 178.570312 L 76.425781 160.714844 " fill-opacity="1" fill-rule="nonzero"/><path fill="#3b8133" d="M 112.167969 160.714844 L 94.296875 160.714844 L 94.296875 178.570312 L 112.167969 178.570312 L 112.167969 160.714844 " fill-opacity="1" fill-rule="nonzero"/><path fill="#275828" d="M 76.425781 142.859375 L 58.554688 142.859375 L 58.554688 160.714844 L 76.425781 160.714844 L 76.425781 142.859375 " fill-opacity="1" fill-rule="nonzero"/><path fill="#275828" d="M 58.554688 125 L 40.683594 125 L 40.683594 142.859375 L 58.554688 142.859375 L 58.554688 125 " fill-opacity="1" fill-rule="nonzero"/><path fill="#1a2217" d="M 76.425781 125 L 58.554688 125 L 58.554688 142.859375 L 76.425781 142.859375 L 76.425781 125 " fill-opacity="1" fill-rule="nonzero"/><path fill="#275828" d="M 94.296875 125 L 76.425781 125 L 76.425781 142.859375 L 94.296875 142.859375 L 94.296875 125 " fill-opacity="1" fill-rule="nonzero"/><path fill="#ee222c" d="M 40.683594 107.144531 L 22.8125 107.144531 L 22.8125 125 L 40.683594 125 L 40.683594 107.144531 " fill-opacity="1" fill-rule="nonzero"/><path fill="#b21d23" d="M 58.554688 107.144531 L 40.683594 107.144531 L 40.683594 125 L 58.554688 125 L 58.554688 107.144531 " fill-opacity="1" fill-rule="nonzero"/><path fill="#ee222c" d="M 76.425781 107.144531 L 58.554688 107.144531 L 58.554688 125 L 76.425781 125 L 76.425781 107.144531 " fill-opacity="1" fill-rule="nonzero"/><path fill="#b21d23" d="M 94.296875 107.144531 L 76.425781 107.144531 L 76.425781 125 L 94.296875 125 L 94.296875 107.144531 " fill-opacity="1" fill-rule="nonzero"/><path fill="#ee222c" d="M 112.167969 107.144531 L 94.296875 107.144531 L 94.296875 125 L 112.167969 125 L 112.167969 107.144531 " fill-opacity="1" fill-rule="nonzero"/><g clip-path="url(#85eb6565e7)"><path fill="#ee222c" d="M 22.8125 89.285156 L 4.945312 89.285156 L 4.945312 107.144531 L 22.8125 107.144531 L 22.8125 89.285156 " fill-opacity="1" fill-rule="nonzero"/></g><path fill="#b21d23" d="M 40.683594 89.285156 L 22.8125 89.285156 L 22.8125 107.144531 L 40.683594 107.144531 L 40.683594 89.285156 " fill-opacity="1" fill-rule="nonzero"/><path fill="#ee222c" d="M 58.554688 89.285156 L 40.683594 89.285156 L 40.683594 107.144531 L 58.554688 107.144531 L 58.554688 89.285156 " fill-opacity="1" fill-rule="nonzero"/><path fill="#b21d23" d="M 76.425781 89.285156 L 58.554688 89.285156 L 58.554688 107.144531 L 76.425781 107.144531 L 76.425781 89.285156 " fill-opacity="1" fill-rule="nonzero"/><path fill="#ee222c" d="M 94.296875 89.285156 L 76.425781 89.285156 L 76.425781 107.144531 L 94.296875 107.144531 L 94.296875 89.285156 " fill-opacity="1" fill-rule="nonzero"/><path fill="#b21d23" d="M 112.167969 89.285156 L 94.296875 89.285156 L 94.296875 107.144531 L 112.167969 107.144531 L 112.167969 89.285156 " fill-opacity="1" fill-rule="nonzero"/><g clip-path="url(#6a33d4eb89)"><path fill="#ee222c" d="M 130.039062 89.285156 L 112.167969 89.285156 L 112.167969 107.144531 L 130.039062 107.144531 L 130.039062 89.285156 " fill-opacity="1" fill-rule="nonzero"/></g><g clip-path="url(#145426474b)"><path fill="#b21d23" d="M 22.8125 71.429688 L 4.945312 71.429688 L 4.945312 89.285156 L 22.8125 89.285156 L 22.8125 71.429688 " fill-opacity="1" fill-rule="nonzero"/></g><path fill="#ee222c" d="M 40.683594 71.429688 L 22.8125 71.429688 L 22.8125 89.285156 L 40.683594 89.285156 L 40.683594 71.429688 " fill-opacity="1" fill-rule="nonzero"/><path fill="#b21d23" d="M 58.554688 71.429688 L 40.683594 71.429688 L 40.683594 89.285156 L 58.554688 89.285156 L 58.554688 71.429688 " fill-opacity="1" fill-rule="nonzero"/><path fill="#ee222c" d="M 76.425781 71.429688 L 58.554688 71.429688 L 58.554688 89.285156 L 76.425781 89.285156 L 76.425781 71.429688 " fill-opacity="1" fill-rule="nonzero"/><path fill="#b21d23" d="M 94.296875 71.429688 L 76.425781 71.429688 L 76.425781 89.285156 L 94.296875 89.285156 L 94.296875 71.429688 " fill-opacity="1" fill-rule="nonzero"/><path fill="#ee222c" d="M 112.167969 71.429688 L 94.296875 71.429688 L 94.296875 89.285156 L 112.167969 89.285156 L 112.167969 71.429688 " fill-opacity="1" fill-rule="nonzero"/><g clip-path="url(#c58249aa0a)"><path fill="#b21d23" d="M 130.039062 71.429688 L 112.167969 71.429688 L 112.167969 89.285156 L 130.039062 89.285156 L 130.039062 71.429688 " fill-opacity="1" fill-rule="nonzero"/></g><path fill="#b21d23" d="M 40.683594 53.574219 L 22.8125 53.574219 L 22.8125 71.429688 L 40.683594 71.429688 L 40.683594 53.574219 " fill-opacity="1" fill-rule="nonzero"/><path fill="#ee222c" d="M 58.554688 53.574219 L 40.683594 53.574219 L 40.683594 71.429688 L 58.554688 71.429688 L 58.554688 53.574219 " fill-opacity="1" fill-rule="nonzero"/><path fill="#b21d23" d="M 76.425781 53.574219 L 58.554688 53.574219 L 58.554688 71.429688 L 76.425781 71.429688 L 76.425781 53.574219 " fill-opacity="1" fill-rule="nonzero"/><path fill="#ee222c" d="M 94.296875 53.574219 L 76.425781 53.574219 L 76.425781 71.429688 L 94.296875 71.429688 L 94.296875 53.574219 " fill-opacity="1" fill-rule="nonzero"/><path fill="#b21d23" d="M 112.167969 53.574219 L 94.296875 53.574219 L 94.296875 71.429688 L 112.167969 71.429688 L 112.167969 53.574219 " fill-opacity="1" fill-rule="nonzero"/><path fill="#ee222c" d="M 40.683594 35.714844 L 22.8125 35.714844 L 22.8125 53.574219 L 40.683594 53.574219 L 40.683594 35.714844 " fill-opacity="1" fill-rule="nonzero"/><path fill="#b21d23" d="M 58.554688 35.714844 L 40.683594 35.714844 L 40.683594 53.574219 L 58.554688 53.574219 L 58.554688 35.714844 " fill-opacity="1" fill-rule="nonzero"/><path fill="#ee222c" d="M 76.425781 35.714844 L 58.554688 35.714844 L 58.554688 53.574219 L 76.425781 53.574219 L 76.425781 35.714844 " fill-opacity="1" fill-rule="nonzero"/><path fill="#b21d23" d="M 94.296875 35.714844 L 76.425781 35.714844 L 76.425781 53.574219 L 94.296875 53.574219 L 94.296875 35.714844 " fill-opacity="1" fill-rule="nonzero"/><path fill="#ee222c" d="M 112.167969 35.714844 L 94.296875 35.714844 L 94.296875 53.574219 L 112.167969 53.574219 L 112.167969 35.714844 " fill-opacity="1" fill-rule="nonzero"/><path fill="#ee222c" d="M 58.554688 17.859375 L 40.683594 17.859375 L 40.683594 35.710938 L 58.554688 35.710938 L 58.554688 17.859375 " fill-opacity="1" fill-rule="nonzero"/><path fill="#b21d23" d="M 76.425781 17.859375 L 58.554688 17.859375 L 58.554688 35.710938 L 76.425781 35.710938 L 76.425781 17.859375 " fill-opacity="1" fill-rule="nonzero"/><path fill="#ee222c" d="M 94.296875 17.859375 L 76.425781 17.859375 L 76.425781 35.710938 L 94.296875 35.710938 L 94.296875 17.859375 " fill-opacity="1" fill-rule="nonzero"/><path fill="#b21d23" d="M 58.554688 0 L 40.683594 0 L 40.683594 17.859375 L 58.554688 17.859375 L 58.554688 0 " fill-opacity="1" fill-rule="nonzero"/><path fill="#ee222c" d="M 76.425781 0 L 58.554688 0 L 58.554688 17.859375 L 76.425781 17.859375 L 76.425781 0 " fill-opacity="1" fill-rule="nonzero"/><path fill="#b21d23" d="M 94.296875 0 L 76.425781 0 L 76.425781 17.859375 L 94.296875 17.859375 L 94.296875 0 " fill-opacity="1" fill-rule="nonzero"/></svg>